<?xml version="1.0" standalone="no"?>
<!DOCTYPE svg PUBLIC "-//W3C//DTD SVG 20010904//EN"
 "http://www.w3.org/TR/2001/REC-SVG-20010904/DTD/svg10.dtd">
<svg version="1.0" xmlns="http://www.w3.org/2000/svg"
 width="256.000000pt" height="256.000000pt" viewBox="0 0 256.000000 256.000000"
 preserveAspectRatio="xMidYMid meet">
<metadata>
Created by potrace 1.16, written by Peter Selinger 2001-2019
</metadata>
<g transform="translate(0.000000,256.000000) scale(0.100000,-0.100000)"
fill="#000000" stroke="none">
<path d="M49 2511 c-81 -81 -80 -83 123 -287 129 -131 169 -176 161 -186 -36
-46 -19 -104 62 -212 57 -75 60 -83 66 -150 12 -148 -28 -101 798 -928 743
-745 746 -748 786 -748 114 0 248 63 350 165 102 102 165 236 165 350 0 40 -3
44 -742 782 -592 591 -754 746 -795 767 -48 24 -177 51 -194 40 -4 -2 -43 22
-87 55 -43 32 -89 64 -101 70 -30 16 -97 16 -117 1 -13 -11 -40 11 -188 158
-204 203 -206 204 -287 123z m218 -103 c62 -62 113 -114 113 -117 0 -4 -14 -6
-31 -7 -39 -2 -71 -34 -73 -73 -1 -17 -3 -31 -7 -31 -15 0 -229 229 -229 246
0 24 69 94 94 94 11 0 66 -46 133 -112z m166 -189 c20 -11 37 -23 37 -26 0
-10 -92 -103 -102 -103 -8 0 -41 61 -52 97 -5 15 -1 28 14 43 23 23 37 21 103
-11z m249 -66 c65 -46 80 -63 57 -63 -29 0 -123 -58 -167 -104 -46 -46 -102
-137 -102 -165 0 -23 -17 -8 -62 57 -72 101 -70 115 44 229 114 115 128 118
230 46z m328 -128 c42 -21 128 -101 362 -334 170 -168 308 -311 308 -318 0
-20 -73 -35 -106 -22 -16 6 -87 68 -159 138 -149 146 -185 166 -284 159 -120
-9 -210 -99 -219 -219 -7 -99 13 -135 163 -289 81 -83 135 -146 139 -164 8
-32 -10 -96 -27 -96 -7 0 -150 139 -319 309 -365 367 -363 365 -363 521 0 96
3 110 28 158 45 86 124 153 217 183 14 5 66 7 115 6 76 -3 99 -8 145 -32z
m217 -430 c20 -8 94 -72 167 -144 162 -159 201 -175 300 -124 l29 15 398 -399
c443 -442 414 -402 384 -518 -51 -195 -236 -358 -430 -381 l-56 -7 -399 399
c-280 280 -398 403 -393 414 54 130 47 147 -122 320 -144 148 -161 176 -153
262 13 129 155 213 275 163z"/>
<path d="M1230 1382 c-76 -42 -89 -135 -25 -199 27 -27 41 -33 74 -33 82 0
131 49 131 128 0 47 -29 88 -76 108 -44 18 -63 18 -104 -4z m118 -54 c50 -48
11 -138 -61 -138 -57 0 -99 63 -75 115 25 55 89 66 136 23z"/>
<path d="M1838 764 c-34 -18 -58 -62 -58 -105 0 -28 19 -51 147 -181 111 -112
155 -149 179 -154 46 -8 99 19 119 63 31 65 19 85 -143 246 -134 133 -152 147
-183 147 -19 -1 -46 -7 -61 -16z m213 -150 c70 -70 133 -139 139 -154 24 -58
-32 -114 -90 -90 -15 6 -84 69 -154 139 -138 140 -148 160 -101 206 46 47 66
37 206 -101z"/>
</g>
</svg>
